<svg width="119" height="27" viewBox="0 0 119 27" fill="none" xmlns="http://www.w3.org/2000/svg">
<g clip-path="url(#clip0_1_3)">
<path d="M93.9008 23.4116C96.9022 23.4116 99.2776 21.858 99.2776 18.9285C99.2776 13.6078 91.4634 14.9234 91.4634 11.8142C91.4634 10.6783 92.4012 9.93167 93.9638 9.93167C95.6514 9.93167 96.5582 10.7978 96.5582 12.2034V12.5312H99.1527V12.233C99.1527 9.42298 97.214 7.5701 93.9638 7.5701C90.9005 7.5701 88.869 9.27386 88.869 11.9633C88.869 17.1951 96.6832 15.7304 96.6832 19.0184C96.6832 20.2737 95.6205 21.0511 93.9329 21.0511C92.1513 21.0511 91.0255 20.1542 91.0255 18.5996V18.331H88.4311V18.6292C88.4311 21.5291 90.4947 23.4116 93.9008 23.4116Z" fill="#2C2B2D"/>
<path d="M50.4871 20.6323C48.607 20.6323 47.8926 19.855 47.8926 17.3147V10.3495H51.5498V7.95831H47.8926V3.53445H45.2385V7.95831H43.1418V10.3495H45.2363V17.8224C45.2363 21.6487 46.549 23.0531 49.6742 23.0531H51.6449V20.6323H50.4871Z" fill="#2C2B2D"/>
<path d="M63.0212 7.95823L62.6142 9.18396C61.6454 8.10735 60.2387 7.5701 58.6761 7.5701C55.3939 7.5701 53.5194 9.36798 53.5194 13.281V17.7049C53.5194 21.6179 55.3939 23.4444 58.6761 23.4444C60.2078 23.4444 61.6454 22.9061 62.6142 21.8294L63.0212 23.0552H64.8647V7.95823H63.0212ZM62.2083 18.2961C62.0203 20.1796 60.8016 21.0162 59.176 21.0162C57.1135 21.0162 56.1448 19.9702 56.1448 17.6086V13.3688C56.1448 11.0072 57.1135 9.9909 59.176 9.9909C60.8016 9.9909 62.0203 10.8274 62.2083 12.711V18.2961Z" fill="#2C2B2D"/>
<path d="M71.2721 3.50266H68.6468V23.0531H71.2721V3.50266Z" fill="#2C2B2D"/>
<path d="M80.305 7.5701C76.6479 7.5701 74.6164 9.72227 74.6164 13.3085V17.6732C74.6164 21.2594 76.6479 23.4422 80.305 23.4422C83.9622 23.4422 85.9937 21.2573 85.9937 17.6732V13.3085C85.9937 9.72227 83.9622 7.5701 80.305 7.5701ZM83.3683 17.7028C83.3683 19.9152 82.3366 21.0204 80.305 21.0204C78.2735 21.0204 77.2417 19.9152 77.2417 17.7028V13.2789C77.2417 11.0675 78.2735 9.9909 80.305 9.9909C82.3366 9.9909 83.3683 11.0675 83.3683 13.2789V17.7028Z" fill="#2C2B2D"/>
<path d="M104.81 23.0531V7.95828L102.184 9.59542V23.0531H104.81Z" fill="#2C2B2D"/>
<path d="M119 7.95828H116.187L113.061 13.1891L109.935 7.95828H107.091L111.561 15.4311L107.153 23.0531H109.904L112.967 17.8223L116.093 23.0531H118.969L114.467 15.521L119 7.95828Z" fill="#2C2B2D"/>
<path d="M17.2696 27L0.0012207 16.1471V16.145L0.0111737 16.1534L1.82814 15.0155L17.2696 24.7145V27Z" fill="#9BD6FF"/>
<path d="M17.2695 19.0417L6.36658 12.2023L8.19461 11.0686L17.2695 16.7583V19.0417Z" fill="#9BD6FF"/>
<path d="M17.2695 23.0193L3.18387 14.1758L4.6359 13.2758L5.01079 13.0432L17.2695 20.735V23.0193Z" fill="#9BD6FF"/>
<path d="M17.2695 7.1376V4.85958L25.0649 0V2.27908L17.2695 7.1376Z" fill="#9BD6FF"/>
<path d="M17.2695 11.1067V8.82761L25.0649 3.96909V6.24817L17.2695 11.1067Z" fill="#9BD6FF"/>
<path d="M17.2695 15.0748V12.7967L25.0649 7.93716V10.2162L17.2695 15.0748Z" fill="#9BD6FF"/>
<path d="M9.55045 0.0581665V2.33619L17.2695 7.14818V4.87015L9.55045 0.0581665Z" fill="#48ACF0"/>
<path d="M9.55045 4.02621V6.3053L17.2695 11.1173V8.8382L9.55045 4.02621Z" fill="#48ACF0"/>
<path d="M9.55045 7.99533V10.2744L17.2695 15.0853V12.8063L9.55045 7.99533Z" fill="#48ACF0"/>
<path d="M25.0649 2.27908L34.539 8.18461V5.90552L25.0649 0V2.27908Z" fill="#48ACF0"/>
<path d="M25.0649 6.24817L34.539 12.1537V9.87461L25.0649 3.96909V6.24817Z" fill="#48ACF0"/>
<path d="M25.0649 10.2162L34.539 16.1218V13.8427L25.0649 7.93716V10.2162Z" fill="#48ACF0"/>
<path d="M27.0378 13.0283L25.2142 11.8914L17.2695 16.77V19.0501L27.0378 13.0283Z" fill="#48ACF0"/>
<path d="M30.2128 15.0071L28.3892 13.8702L17.2695 20.7413V23.0235L30.2128 15.0071Z" fill="#48ACF0"/>
<path d="M31.5631 15.849L17.2695 24.7168V27.0001L33.4486 16.9288L31.5631 15.849Z" fill="#48ACF0"/>
<path d="M1.82803 15.0154V4.82352L0 5.96359V16.1449H0.00110589L0.0110589 16.1534L1.82803 15.0154Z" fill="#48ACF0"/>
<path d="M8.19461 11.0687V0.855682L6.36658 1.9947V9.92231V11.0624V12.2025L8.19461 11.0687Z" fill="#48ACF0"/>
<path d="M5.01079 13.0432V2.83969L3.18387 3.97976V14.1759L4.6359 13.2759L5.01079 13.0432Z" fill="#48ACF0"/>
<path d="M104.81 3.50266V5.83673L102.184 7.48233V5.14825L104.81 3.50266Z" fill="#2C2B2D"/>
</g>
<defs>
<clipPath id="clip0_1_3">
<rect width="119" height="27" fill="white"/>
</clipPath>
</defs>
</svg>
